<?xml version="1.0" encoding="UTF-8"?>
<svg id="Capa_2" xmlns="http://www.w3.org/2000/svg" viewBox="0 0 367.89 314.62">
  <defs>
    <style>
      .cls-1 {
        fill: #f1842c;
      }
    </style>
  </defs>
  <g id="Capa_1-2" data-name="Capa_1">
    <g>
      <path class="cls-1" d="M215.16,273.73c-42.16,0-84.32-.58-126.46.3-15.47.32-25.94-14.43-25.93-26.41,0-73.15.08-146.3-.06-219.44-.03-16.97,13.83-30.76,29.08-27.75,3.21.63,6.65.15,9.98.15,76.98,0,153.96-.02,230.94.03,5.77,0,11.63-.08,17.27.88,9.79,1.66,17.81,14.52,17.85,23.96.09,22.99.04,45.99.04,68.98,0,50.99,0,101.97-.02,152.96,0,11.93-6.31,20.04-16.4,25.32-2.45,1.28-5.86.99-8.83.99-42.49.06-84.98.04-127.47.03ZM214.73,250.09v.02c40.65,0,81.29,0,121.94,0,6.79,0,7.05-.25,7.06-7.03.02-22.16,0-44.31,0-66.47,0-48.81-.06-97.62.06-146.42.01-4.35-1.34-5.99-5.69-5.84-5.49.18-10.99-.17-16.49-.17-75.63-.02-151.25-.02-226.88-.02-7.73,0-7.89.09-7.89,7.8-.02,70.63.03,141.26-.14,211.89-.01,5.23,1.72,6.36,6.59,6.34,40.48-.17,80.96-.1,121.44-.1Z"/>
      <path d="M55.09,68.75v6.88c-12.48,0-24.77.02-37.05,0-12.01-.03-11.8-1.3-11.79,12,.05,70.64.02,141.27.03,211.91,0,8.1.03,8.11,8.12,8.11,63.47,0,126.94,0,190.42,0,7.43,0,7.47-.05,7.47-7.65,0-5.63,0-11.25,0-17.11h6.79c0,7.28.49,14.59-.14,21.8-.59,6.65-5.05,9.88-12.02,9.91-11.83.06-23.66.02-35.48.02-52.31,0-104.62,0-156.93,0-11.04,0-14.33-3.2-14.33-13.98C.17,227.99.32,155.35,0,82.72c-.05-10.96,6.07-14.18,14.09-14.04,13.47.24,26.95.06,41,.06Z"/>
      <path d="M219.21,242.27h-6.93c0-2.02,0-3.95,0-5.88,0-51.15,0-102.31,0-153.46,0-7.09-.22-7.3-7.37-7.31-35.16,0-70.31,0-105.47,0-1.8,0-3.6,0-5.71,0v-6.66c1.66-.08,3.26-.22,4.87-.22,35.49-.01,70.98-.02,106.47,0,10.17,0,14.13,3.98,14.14,14.14,0,51.32,0,102.64,0,153.96,0,1.63,0,3.26,0,5.43Z"/>
    </g>
  </g>
</svg>