<?xml version="1.0" encoding="UTF-8"?>
<svg id="Capa_2" xmlns="http://www.w3.org/2000/svg" xmlns:xlink="http://www.w3.org/1999/xlink" viewBox="0 0 1162.74 802.57">
  <defs>
    <style>
      .cls-1 {
        fill: #3c3c3b;
      }

      .cls-2 {
        fill: #fddbbd;
      }

      .cls-3 {
        fill: #f5a15b;
      }

      .cls-4, .cls-5, .cls-6, .cls-7 {
        fill: #010101;
      }

      .cls-8 {
        fill: #f6f6f6;
      }

      .cls-9 {
        opacity: .1;
      }

      .cls-9, .cls-10, .cls-11, .cls-12 {
        fill: #fff;
      }

      .cls-13 {
        fill: #555554;
      }

      .cls-14 {
        fill: #f1842c;
      }

      .cls-15 {
        fill: none;
        stroke: #50504f;
        stroke-miterlimit: 10;
        stroke-width: 2.04px;
      }

      .cls-16 {
        fill: #706f6f;
      }

      .cls-17, .cls-5 {
        opacity: .1;
      }

      .cls-18 {
        fill: url(#Degradado_sin_nombre_14);
      }

      .cls-5, .cls-6, .cls-7, .cls-11, .cls-12 {
        isolation: isolate;
      }

      .cls-6, .cls-11 {
        opacity: .25;
      }

      .cls-7 {
        opacity: .05;
      }

      .cls-19 {
        fill: #141419;
      }

      .cls-12 {
        opacity: .2;
      }
    </style>
    <linearGradient id="Degradado_sin_nombre_14" data-name="Degradado sin nombre 14" x1="574" y1="-2979.8" x2="574" y2="-2867.24" gradientTransform="translate(186.28 -2346.54) scale(1 -1)" gradientUnits="userSpaceOnUse">
      <stop offset="0" stop-color="#fff" stop-opacity=".25"/>
      <stop offset=".54" stop-color="#fff" stop-opacity=".12"/>
      <stop offset="1" stop-color="#fff" stop-opacity=".1"/>
    </linearGradient>
  </defs>
  <g id="Capa_1-2" data-name="Capa_1">
    <g>
      <g>
        <path class="cls-10" d="M1039.2,489.1c-3.4,8.27,1.69,38.41,1.69,38.41,0,0,24.84-17.82,28.25-26.09,3.4-8.27-.54-17.73-8.81-21.13-8.27-3.4-17.73.54-21.13,8.81h0Z"/>
        <path class="cls-10" d="M995.59,524.72c1.64,8.79,22.31,31.32,22.31,31.32,0,0,11.21-28.45,9.53-37.25-1.64-8.79-10.09-14.59-18.88-12.95-8.79,1.64-14.59,10.09-12.95,18.88h0Z"/>
        <path class="cls-10" d="M964.45,603.44c5.85,6.76,35.07,15.78,35.07,15.78,0,0-4.73-30.21-10.58-36.97-6-6.63-16.24-7.14-22.87-1.14-6.43,5.82-7.13,15.66-1.6,22.33h-.02Z"/>
        <path class="cls-10" d="M954.31,668.31c4.62,7.66,31.89,21.48,31.89,21.48,0,0,.45-30.58-4.17-38.23-4.63-7.65-14.58-10.11-22.23-5.48s-10.11,14.58-5.48,22.23Z"/>
        <path class="cls-10" d="M1048.67,570.59c-8.3,3.31-38.39-2.09-38.39-2.09,0,0,18.06-24.66,26.37-27.98,8.3-3.32,17.73.72,21.05,9.03,3.32,8.3-.72,17.73-9.03,21.05h0Z"/>
        <path class="cls-10" d="M1035.85,646.3c-8.91.68-36.01-13.48-36.01-13.48,0,0,24.61-18.14,33.53-18.82,8.93-.5,16.58,6.34,17.07,15.27.48,8.67-5.96,16.18-14.6,17.02Z"/>
        <path class="cls-10" d="M1013.29,718.17c-8.68,2.18-37.77-7.2-37.77-7.2,0,0,21.19-22.03,29.87-24.2,8.67-2.18,17.47,3.08,19.65,11.75,2.18,8.67-3.08,17.47-11.75,19.65Z"/>
        <path class="cls-10" d="M985.12,671.88c1.12,8.88,20.45,32.56,20.45,32.56,0,0,12.8-27.76,11.67-36.64-1.13-8.87-9.23-15.15-18.1-14.02s-15.15,9.23-14.02,18.1h0Z"/>
      </g>
      <path class="cls-9" d="M8.93,422.51c20.55-33.57,67.03-27.72,99.99-10.19,32.96,17.52,65.85,43.68,102.12,38.66,30.58-4.24,55.66-30.91,69.21-61.68s17.52-65.46,21.34-99.44c4.79-42.69,9.58-85.4,14.36-128.14,1.75-15.63,3.82-32.12,12.61-44.49,11.61-16.31,32.9-21.33,51.1-16.42s33.73,18.05,47.02,32.72c42.55,46.98,66.66,110.48,103.86,162.75,7.57,10.64,16.13,21.16,27.44,26.3,16.31,7.39,35.04,2.16,50.97-6.07,51.99-26.8,86.92-81.49,121.24-132.53,16.7-24.8,37.06-51.33,64.84-54.03,29.23-2.91,54.6,22,71.78,48.37,55.13,84.86,66.95,200.71,133.55,274.72,8.27,9.17,17.39,17.66,27.9,23.36,3.47,1.87,7.08,3.46,10.81,4.74,58.11,20.11,77.48,100.85,34.5,148.72-.93,1.02-1.88,2.04-2.83,3.06-6.38,6.74-13.61,13.11-22.23,15.12-8.02,1.86-16.31-.29-24.26-2.6-50.83-14.83-101.05-37.5-153.6-36.4-51.13,1.02-99.64,24.64-150.2,33.14-34,5.72-68.59,4.58-102.96,3.34-114.49-4.12-228.95-8.91-343.4-14.37-56.8-2.61-113.63-5.1-170.42-8-43.75-2.27-71.63-7.28-76.7-58.06-4.44-44.47-44.37-99.53-18.01-142.59Z"/>
      <ellipse class="cls-19" cx="805.25" cy="764.1" rx="275.24" ry="38.46"/>
      <path class="cls-16" d="M153.75,298.95l-1.02-.25c10.04-42.82,11.46-69.81,3.98-76.01l.69-.84c7.89,6.57,6.65,33.23-3.65,77.1Z"/>
      <path class="cls-16" d="M124.92,399.53l-1.58-.44c1.11-3.93,2.31-7.94,3.6-11.89,11.21-34.38,20.53-66.26,26.25-90.67l1.29-.76c-5.73,24.47-14.79,57.53-25.99,91.93-1.27,3.94-2.48,7.91-3.58,11.83Z"/>
      <path class="cls-16" d="M172.89,628.29c-.22-.21-22.65-22.29-39.88-61.41-10.09-22.9-16.5-47.25-18.97-72.15-3.06-31.12,1.12-66.4,10.19-98.78l1.3,1.35c-20.39,72.7-6.31,132.87,9.41,168.61,17.06,38.74,39.23,60.61,39.45,60.82l-1.51,1.56Z"/>
      <path class="cls-16" d="M198.86,330.95l-.64-.15c6.12-25.88,6.93-42.2,2.41-45.95l.42-.51c4.8,3.98,4.05,20.1-2.18,46.61Z"/>
      <path class="cls-16" d="M181.44,391.77l-.96-.28c.67-2.38,1.41-4.79,2.18-7.14,6.76-20.79,12.41-40.06,15.86-54.81l.78-.47c-3.47,14.78-8.94,34.78-15.71,55.59-.77,2.35-1.5,4.73-2.16,7.11Z"/>
      <path class="cls-16" d="M210.43,530.06c-.13-.13-13.69-13.48-24.11-37.13-6.1-13.84-9.97-28.56-11.47-43.61-1.87-18.82.68-40.15,6.18-59.73l.78.82c-12.32,43.95-3.81,80.33,5.69,101.94,10.32,23.45,23.71,36.63,23.85,36.76l-.93.95Z"/>
      <path class="cls-12" d="M223.54,435.83c-1.91-.88-3.87-1.71-5.96-2.48,0,0-1.02.8-2.92,2.29-16.67,13.46-98.74,84.42-78.73,163.6,22.21,88.01,27.26,149.67,27.26,149.67h9.1s-5.05-61.69-27.31-149.69c-19.93-78.81,61.35-149.51,78.56-163.39Z"/>
      <path class="cls-5" d="M241.1,581.04c-2.62.46-5.18,1.2-7.65,2.18-9.94-48.65-16.24-97.98-18.84-147.57,1.88-1.5,2.92-2.29,2.92-2.29,82.67,30.36,23.57,147.69,23.57,147.69Z"/>
      <path class="cls-5" d="M434.56,435.19c-3.37,49.45-10.74,98.54-22.03,146.8-1.27-.38-2.57-.69-3.88-.91,0,0-59.13-117.33,23.57-147.69-.03-.04.81.58,2.34,1.79Z"/>
      <path class="cls-2" d="M404.3,603.28c-5.71,22.52-12.4,45.63-20.07,69.32-11.51,35.54-36.41,37.93-124.37,0,0,0-8.79-24.77-18.45-66.88-21.28-92.6-46.79-269.05,7.57-450.29,16.19-54.49,39.2-106.71,68.49-155.42,0,0,46.45,53.33,80.54,155.39,34.09,102.07,55.78,252.89,6.3,447.89Z"/>
      <path class="cls-2" d="M391.35,649.82c-2.26,7.52-4.64,15.11-7.14,22.75-3.75,11.47-36.41,37.93-124.37,0,0,0-2.85-8.04-7.14-22.75-.01,0,89.64,25.79,138.64,0Z"/>
      <path class="cls-12" d="M310.83,249.39l-.11.08-37.62,48.57v1.23c0,8.37,2.02,16.61,5.9,24.03l44.32-75.8-12.5,1.9Z"/>
      <path class="cls-12" d="M322.83,293.23l-30.81,46.13c-3.7-3.05-6.97-6.59-9.7-10.53l36.7-39.39,3.81,3.79Z"/>
      <path class="cls-12" d="M279.53,672.58s-8.79-24.78-18.45-66.88c-21.28-92.61-46.79-269.06,7.57-450.3,14.61-49.04,34.74-96.27,59.99-140.77C321.74,4.94,317.43.01,317.43.01c-29.29,48.7-52.31,100.91-68.51,155.38-54.37,181.24-28.85,357.7-7.57,450.3,9.66,42.1,18.45,66.88,18.45,66.88,34.75,14.98,61.45,18.12,81.04,16.44-16.74-1.27-37.07-5.99-61.32-16.44Z"/>
      <path class="cls-15" d="M955.19,743.09s47.65-59.29,44.49-118.67c-1.48-24.89,5.15-49.6,18.9-70.4,6.62-9.84,14.13-19.06,22.43-27.52"/>
      <path class="cls-11" d="M1039.2,489.1c-3.4,8.27,1.69,38.41,1.69,38.41,0,0,24.84-17.82,28.25-26.09,3.4-8.27-.54-17.73-8.81-21.13-8.27-3.4-17.73.54-21.13,8.81h0Z"/>
      <path class="cls-11" d="M995.59,524.72c1.64,8.79,22.31,31.32,22.31,31.32,0,0,11.21-28.45,9.53-37.25-1.64-8.79-10.09-14.59-18.88-12.95-8.79,1.64-14.59,10.09-12.95,18.88h0Z"/>
      <path class="cls-11" d="M964.45,603.44c5.85,6.76,35.07,15.78,35.07,15.78,0,0-4.73-30.21-10.58-36.97-6-6.63-16.24-7.14-22.87-1.14-6.43,5.82-7.13,15.66-1.6,22.33h-.02Z"/>
      <path class="cls-6" d="M954.31,668.31c4.62,7.66,31.89,21.48,31.89,21.48,0,0,.45-30.58-4.17-38.23-4.63-7.65-14.58-10.11-22.23-5.48s-10.11,14.58-5.48,22.23Z"/>
      <path class="cls-11" d="M1048.67,570.59c-8.3,3.31-38.39-2.09-38.39-2.09,0,0,18.06-24.66,26.37-27.98,8.3-3.32,17.73.72,21.05,9.03,3.32,8.3-.72,17.73-9.03,21.05h0Z"/>
      <path class="cls-11" d="M1035.85,646.3c-8.91.68-36.01-13.48-36.01-13.48,0,0,24.61-18.14,33.53-18.82,8.93-.5,16.58,6.34,17.07,15.27.48,8.67-5.96,16.18-14.6,17.02Z"/>
      <path class="cls-6" d="M1013.29,718.17c-8.68,2.18-37.77-7.2-37.77-7.2,0,0,21.19-22.03,29.87-24.2,8.67-2.18,17.47,3.08,19.65,11.75,2.18,8.67-3.08,17.47-11.75,19.65Z"/>
      <path class="cls-15" d="M955.62,740.62s67.59-34.91,88.76-90.46c8.73-23.36,24.81-43.27,45.81-56.71,10.02-6.31,20.6-11.69,31.6-16.07"/>
      <path class="cls-19" d="M1135.34,542.44c-6.46,6.19-14.02,35.81-14.02,35.81,0,0,29.93-6.23,36.39-12.41,6.47-6.18,6.71-16.44.54-22.91s-16.44-6.71-22.91-.54h0v.04Z"/>
      <path class="cls-19" d="M1081.05,557.33c-2.04,8.71,7.7,37.72,7.7,37.72,0,0,21.7-21.48,23.8-30.24,2.04-8.71-3.37-17.41-12.07-19.45-8.67-2.03-17.35,3.32-19.43,11.97h0Z"/>
      <path class="cls-19" d="M1020.68,616.68c2.61,8.55,25.67,28.64,25.67,28.64,0,0,7.92-29.56,5.31-38.08-2.61-8.56-11.66-13.38-20.21-10.77-8.56,2.61-13.38,11.66-10.77,20.21h0Z"/>
      <path class="cls-19" d="M1110.99,620.77c-8.94-.33-34.25-17.46-34.25-17.46,0,0,26.51-15.22,35.45-14.89,8.94.33,15.91,7.84,15.58,16.77-.33,8.94-7.84,15.91-16.77,15.58h0Z"/>
      <path class="cls-19" d="M1068.58,684.79c-8.43-2.99-27.46-26.91-27.46-26.91,0,0,29.86-6.6,38.28-3.61,8.43,2.99,12.84,12.24,9.85,20.67-2.99,8.43-12.24,12.84-20.67,9.85h0Z"/>
      <path class="cls-19" d="M1018.82,741.36c-8.81-1.52-31.6-21.89-31.6-21.89,0,0,28.31-11.54,37.12-10.02,8.81,1.52,14.72,9.9,13.2,18.71-1.52,8.81-9.9,14.72-18.71,13.2h-.01Z"/>
      <path class="cls-18" d="M793.13,551.88c.21,1.4,2.54,16.45,4.64,20.39.44.84.61,3.8.55,8.04-9.87-.78-20.14-1.2-20.14-1.2.3.36.48.79.53,1.25l-1.55-.35-2.25-.55,18.18-27.65.05.06ZM757.12,609.17l17.08,2.71,1.44.22c-.49,2.66-.79,5.36-.89,8.06,0,.25.39.56.94.92-.24,1.35-.35,2.71-.34,4.08.28,1.36,8.26,4.27,17.41,6.7-.12.49-.24.96-.37,1.4h0c-8.08-4.25-20.83-6.24-22.29-9.4s-44.86-18.35-44.86-18.35c0,0-1.58-.84-4.31-2.16l11.42,2.16,3.14-.32c7.12,1.78,14.34,3.1,21.63,3.96v.02ZM795.15,520.75c.18,1.21,2.19,14.2,4,17.6.38.72.53,3.28.48,6.94-8.52-.68-17.39-1.04-17.39-1.04.26.31.41.68.46,1.08l-1.34-.3-1.94-.48,15.69-23.86.04.05ZM764.07,570.2l14.74,2.34,1.24.19c-.42,2.3-.68,4.62-.77,6.96,0,.22.33.48.81.79-.21,1.16-.3,2.34-.29,3.52.24,1.17,7.13,3.69,15.03,5.78-.11.42-.21.83-.32,1.21h0c-6.98-3.67-17.98-5.38-19.24-8.11s-38.71-15.84-38.71-15.84c0,0-1.36-.72-3.72-1.87l9.85,1.87,2.71-.27c6.14,1.54,12.38,2.68,18.67,3.41v.02Z"/>
      <path class="cls-1" d="M995.98,718.49s-6.79,41.01-41.26,47.08c-34.47,6.07-149.51,4.85-149.51,4.85,0,0-65.77-9.46-89.56-65.04-23.78-55.58-39.07-77.67-18.69-78.64s130.33,37.14,136.6,37.62,168.47-84.46,162.41,54.13Z"/>
      <path class="cls-7" d="M995.98,718.49s-6.79,41.01-41.26,47.08c-34.47,6.07-149.51,4.85-149.51,4.85,0,0-65.77-9.46-89.56-65.04-23.78-55.58-39.07-77.67-18.69-78.64s130.33,37.14,136.6,37.62,168.47-84.46,162.41,54.13Z"/>
      <path class="cls-13" d="M687.45,764.11s3.44,9.05,12.89,9.69c1.39.1,2.78.02,4.15-.22,12.62-2.18,42.24-7.28,52.66-5.34,6.28,1.17,17.89-.56,26.16-2.12,5.5-1.02,9.52-2.04,9.52-2.04,0,0-9.71-32.28-10.93-33.24s-43.68-26.45-43.68-26.45l-33.64-2.42h-.1s-6.23.42-11.4,6.7c-3.56,4.29-6.61,11.35-6.81,22.91-.47,28.41,1.18,32.54,1.18,32.54Z"/>
      <path class="cls-7" d="M687.45,764.11s3.44,9.05,12.89,9.69c-3.32-4.26-6.38-8.71-9.17-13.33l.17-23.54c-1.5-17.63,6.75-28.91,13.25-34.94h-.1s-17.72,1.2-18.21,29.56,1.17,32.55,1.17,32.55Z"/>
      <path class="cls-5" d="M833.37,712.65l31.31-24.47,49.27-48.55s-5.32-.25-13.34-.6c-2.04,1.27-7.59,5.28-7.8,10.19-.24,5.93-13.32.41-20.11,3.8s-40.04,45.96-45.87,45.68c-5.83-.28-10.43-2.96-12.87,1.17,0,.09-.11.17-.17.27l19.59,12.5Z"/>
      <path class="cls-5" d="M693.09,708.68c1.11.54,2.23,1.02,3.38,1.55,23.79,10.19,53.15,31.6,55.34,35.44,1.33,2.37,18.35,12.7,31.49,20.45,5.5-1.02,9.52-2.04,9.52-2.04,0,0-9.71-32.28-10.93-33.24s-43.68-26.45-43.68-26.45l-33.64-2.42h-.1s-6.22.44-11.39,6.72Z"/>
      <path class="cls-1" d="M627.07,639.11c3.15,7.77,29.56,37.63,29.56,37.63,0,0,16.74,21.84,40.53,32.03,23.79,10.19,53.15,31.6,55.33,35.44,1.41,2.5,20.39,13.92,33.72,21.76l2.99,1.74,6.63,3.84,3.51,2.04s8.16-6.52,16.22-13.09c8.06-6.57,15.93-13,16.07-13.36.23-.72,3.38-8.98,2.66-9.46-.38-.25-2.04-3.62-5.1-7.51-3.26-4.32-7.5-7.81-12.37-10.19-11.21-5.1-16.02-16.7-16.02-16.7,0,0-1.02-.77-2.68-1.79-2.87-1.81-7.49-4.42-10.91-4.86-5.35-.67-15.29-11.59-15.29-11.59,0,0-6.8-4.37-9.47-9.95-2.55-5.32-40.19-31.17-43.67-33.56l91.25,58.6,21.84,14.04,31.31-24.47,49.28-48.55s-6.63-.33-16.31-.73c-23.95-1.02-66.48-2.66-71.85-1.45-4.37,1.02-8.89,1.31-13.35.87,0,0-12.11.55-20.12-3.68s-20.64-6.21-22.1-9.34c-1.46-3.13-44.42-18.2-44.42-18.2,0,0-58.48-31.06-79.36-12.61-20.88,18.45-21.03,35.35-17.87,43.11Z"/>
      <path class="cls-8" d="M815.65,460.98l7.52,25,9.71,56.3,35.68,2.43,10.33-17.13,10.35-17.1s6.42-22.75,11.04-44.76c4.08-19.47,6.75-38.37,2.3-40.42-3.93-1.82-6.52-8.38-8.16-15.43-.21-.87-.41-1.75-.59-2.64-1.19-5.97-1.98-12.02-2.37-18.09,0,0-74.75-3.87-64.32,26.94,1.86,5.26,2.81,10.81,2.81,16.39-.01,1.39-.1,2.79-.25,4.17-1.07,9.72-6.17,18.55-14.06,24.34Z"/>
      <path class="cls-2" d="M800.11,456.85l2.67,42.47,6.07,36.16,6.8,16.75,6.07,91.63s58.53,6.77,72.76-.12c1.03-.44,1.92-1.14,2.58-2.04,17.19-25.92,11.55-101.12,11.55-101.12l6.55-48.56-4.37-25.2-10.55-1.12-8.16-.87s-1.83,2.26-4.49,5.76c-7.2,9.5-20.39,28.19-19.54,35.99,1.2,10.68-1.46,21.6-5.59,23.3s-7.52,4.61-8.25,1.7-1.46-3.64-.73-7.77-3.16-16.75-3.16-16.75c0,0-6.54-14.8-6.12-21.11.43-6.31-.72-13.6-2.67-15.29s-4.61-3.4-2.43-11.21c2.18-7.81-9.57-22.89-9.57-22.89l-29.42,20.29Z"/>
      <path class="cls-5" d="M877.42,562.92l2.43,72.57,14.02,7.77c1.03-.44,1.92-1.14,2.58-2.04,17.2-25.96,11.56-101.15,11.56-101.15l6.55-48.55-4.37-25.19-10.56-1.12c4.08-19.47,6.75-38.37,2.31-40.42-3.95-1.82-6.53-8.38-8.22-15.43h0l-7.54,51.38s.63,4.63.86,9.4c.17,3.55.11,7.14-.61,9.04-1.7,4.37-.49,12.14-.49,12.14-4.37,7.71-6.55,21.99-7.63,35.78-1.44,18.34-.89,35.81-.89,35.81Z"/>
      <path class="cls-13" d="M893.95,408.24s12.23,1.52,16.11,6.62,14.08,5.8,14.08,5.8c0,0,11.65,3.88,11.41,4.85s3.39,2.44,10.68,4.37,19.37,8.98,19.37,10.68,19.18,20.62,19.18,22.57,5.83,9.17,5.1,22.08c-.73,12.91-1.46,29.13,1.46,31.8s0,13.11,0,13.11c-1.58,2.33-1.64,5.38-.15,7.77,2.43,4.37-.48,22.58-.48,22.58l.23,18.93s-2.67,11.89.49,12.38-.49,5.82-.49,5.82c0,0-2.67,9.72.73,14.08s4.36,23.06,4.36,23.06l51.99,75.44s.73,13.83-15.77,13.59c-16.5-.24-16.31,3.16-15.78,6.31s-4.61,6.55-4.61,6.55c0,0-6.55,3.39-2.67,7.52s15.05,13.59-3.39,19.9c-2.18-3-3.98-6.26-5.34-9.71-1.57-4.28-2.86-8.66-3.88-13.1,0,0-1.7-18.45-5.1-20.88s-2.92-14.08-2.92-14.08c0,0,4.85-9.46-1.94-13.34s-105.44-58.44-105.44-58.44l-2.43-72.57s-1.7-53.63,8.49-71.59c0,0-1.21-7.77.49-12.13s-.24-18.45-.24-18.45l6.46-51.51Z"/>
      <path class="cls-5" d="M830.34,437.36s-24.39-5.03-30.95-1.63c-6.55,3.39-19.37,6.12-21.41,8.01s-6.8.49-11.16,11.9-4.86,23.05-10.44,28.39-8.49,8.98-8.74,12.87.72,4.85-1.46,6.12-5.34,6.31-4.37,8.26,50.57,44.6,50.57,44.6c0,0,2.44,16.31,4.62,20.39s-2.43,60.92-7.28,64.81,32.76,3.53,32.76,3.53c0,0,1.69-37.26,3.15-39.21s-1.02-41.8-1.02-41.8c0,0-.24-33.98,2.92-42.96s2.8-38.8,2.8-38.8c0,0,2.79-17.91,6.19-22.09s-6.19-22.38-6.19-22.38Z"/>
      <path class="cls-13" d="M829.61,436.63s-24.41-5.03-30.96-1.63-19.37,6.07-21.36,8.01-6.79.48-11.21,11.89c-4.42,11.41-4.85,23.06-10.44,28.4-5.59,5.34-8.49,8.98-8.74,12.87s.73,4.85-1.45,6.07-5.34,6.31-4.37,8.25,50.48,44.66,50.48,44.66c0,0,2.43,16.31,4.61,20.39s-2.43,60.91-7.28,64.8,32.76,3.53,32.76,3.53c0,0,1.7-37.26,3.16-39.2s-1.02-41.8-1.02-41.8c0,0-.23-33.98,2.92-42.96,3.15-8.98,2.8-38.84,2.8-38.84,0,0,2.79-17.91,6.18-22.08s-6.09-22.35-6.09-22.35Z"/>
      <path class="cls-5" d="M827.05,416.07c1.86,5.26,2.81,10.81,2.81,16.39,24.56,7.28,50.92-3.14,63.87-25.24-1.19-5.97-1.98-12.02-2.37-18.09,0,0-74.74-3.87-64.32,26.94Z"/>
      <path class="cls-8" d="M790.16,377.72c.03,30.7,24.93,55.56,55.63,55.53,30.7-.03,55.56-24.93,55.53-55.63-.03-30.7-24.93-55.56-55.63-55.53-26.24.02-48.9,18.4-54.33,44.08-.8,3.8-1.21,7.67-1.2,11.55Z"/>
      <path class="cls-13" d="M754.48,506.35l-13.34,4.13s1.21,4.85-2.67,7.28-3.39,7.29-3.39,7.29c0,0-1.46,5.33-4.85,6.54s-5.59,9.17-5.59,9.17l-11.16,12.87s-4.13,3.39-3.39,5.1-4.37,2.18-4.37,2.18l2.67,43.24,23.06,4.37,14.27-1.46,11.65-4.37,10.19-6.12,4.65-11.79,20.39-31.06-38.11-47.37Z"/>
      <path class="cls-8" d="M709.1,564.4s-29.56-42.72-51.7-19.66c-22.13,23.06,8.98,60.43,16.26,59.22s41.99-3.15,41.99-3.15l-6.55-36.4Z"/>
      <rect class="cls-19" x="654.09" y="537.82" width="62.61" height="71.16" rx="12.87" ry="12.87" transform="translate(-207.6 606.68) rotate(-42.05)"/>
      <rect class="cls-5" x="654.09" y="537.82" width="62.61" height="71.16" rx="12.87" ry="12.87" transform="translate(-207.6 606.68) rotate(-42.05)"/>
      <rect class="cls-19" x="654.93" y="534.3" width="62.61" height="71.16" rx="12.87" ry="12.87" transform="translate(-205.03 606.33) rotate(-42.05)"/>
      <circle class="cls-5" cx="685.46" cy="571.64" r="13.83"/>
      <g>
        <path class="cls-1" d="M151.63,598.17s13.46-3.06,22.27,5.98c0,0-5.67,5.1-19-.55l-3.27-5.43Z"/>
        <path class="cls-1" d="M150.14,598.04s-7.97,11.3-2.92,22.89c0,0,6.89-3.31,6.7-17.79l-3.78-5.1Z"/>
        <path class="cls-1" d="M141.17,581.02s4.78-10.35,27.52,2.16c0,0-2.45,6.91-12.11,7.01-9.66.1-12.56-4.09-15.41-9.17Z"/>
        <path class="cls-1" d="M139.72,580.38s-11.39-.53-10.74,25.4c0,0,7.27,1.02,11.81-7.52s2.13-12.96-1.06-17.88Z"/>
        <path class="cls-1" d="M131.79,560.2s5.1-18.02,29.02-7.01c0,0-4.18,16.5-26.3,12.89l-2.72-5.87Z"/>
        <path class="cls-1" d="M122.91,534.37s10.79-18.59,33.12-3.51c0,0-6.31,17.2-30.88,9.74l-2.24-6.23Z"/>
        <path class="cls-1" d="M118.69,509.49s12.88-17.28,35.03-2.35c0,0-12.29,15.23-34.75,6.52l-.28-4.17Z"/>
        <path class="cls-1" d="M114.88,485.31s13.01-18,34.24-3.21c0,0-14.97,16.14-33.98,7.21l-.27-4Z"/>
        <path class="cls-1" d="M114.7,463.64s13.41-22.97,33.28-9.35c0,0-14.7,19.95-33,13.52l-.29-4.17Z"/>
        <path class="cls-1" d="M116.5,438.17s14.27-22.84,33.73-7.32c0,0-17.43,20.13-33.51,11.37l-.22-4.05Z"/>
        <path class="cls-1" d="M120.2,415.28s17.33-21.72,34.2-14.65c0,0-18.02,23.04-34.66,20.14l.46-5.49Z"/>
        <path class="cls-1" d="M125.3,393.46s19.92-26.51,33-18.98c0,0-14.59,20.48-34.23,23.8l1.23-4.82Z"/>
        <path class="cls-1" d="M133.07,368.04s17.5-21.73,31.6-17.57c0,0-14.73,22.32-33.74,24.14l2.14-6.57Z"/>
        <path class="cls-1" d="M140.05,344.27s19.55-21,28.86-18.17c0,0-13.61,22.79-29.48,22.58l.62-4.41Z"/>
        <path class="cls-1" d="M146.95,322.29s16.4-24.62,26.32-23.45c0,0-9.49,21.6-26.16,25.82l-.16-2.38Z"/>
        <path class="cls-1" d="M154.08,292.82s14.67-19.02,23.25-19.55c0,0-10.92,24.81-23.52,25.49l.27-5.93Z"/>
        <path class="cls-1" d="M158.16,273.24l12.82-38.42s3.06,33.74-14.27,45.49l1.45-7.06Z"/>
        <path class="cls-1" d="M161.61,231.58s.45-31.39-1.36-33.81c0,0,12.71,25.22,2.18,47.62l-.83-13.8Z"/>
        <path class="cls-1" d="M131.14,559.82s-16.58-8.79-25.25,16.04c0,0,14.78,8.44,27.52-10l-2.27-6.04Z"/>
        <path class="cls-1" d="M122.33,533.4s-20.1-7.59-27.88,18.23c0,0,15.77,9.33,30.08-11.99l-2.2-6.24Z"/>
        <path class="cls-1" d="M117.89,511.05s-15.08-15.4-35.03,2.38c0,0,14.21,13.45,35.3,1.82l-.28-4.2Z"/>
        <path class="cls-1" d="M114.4,485.35s-15.29-16.12-34.37,1.39c0,0,16.98,14,34.66,2.6l-.3-3.99Z"/>
        <path class="cls-1" d="M114.74,464.25s-11.58-23.93-32.45-11.9c0,0,13.11,21.03,31.85,16.05l.6-4.15Z"/>
        <path class="cls-1" d="M117.69,437.99s-11.55-24.36-32.68-11.29c0,0,14.94,22.03,31.95,15.22l.73-3.93Z"/>
        <path class="cls-1" d="M122.31,415.26s-5.75-27.17-24.01-28.41c0,0,5.79,28.68,21.93,33.52l2.08-5.11Z"/>
        <path class="cls-1" d="M125.77,393.48s-3.74-32.94-18.82-33.09c0,0,2.19,25.05,17.44,37.87l1.38-4.78Z"/>
        <path class="cls-1" d="M134.57,366.99s-6.33-27.18-20.87-29.56c0,0,3.57,26.51,19.91,36.41l.96-6.85Z"/>
        <path class="cls-1" d="M141.76,344.35s-2.04-28.62-11.11-32.23c0,0-3.68,26.28,8.82,36.07l2.29-3.83Z"/>
        <path class="cls-1" d="M147.6,321.94s-3.21-29.41-12.55-32.95c0,0-1.53,23.54,11.32,34.97l1.23-2.02Z"/>
        <path class="cls-1" d="M155.51,295.08s-1.67-23.97-8.51-29.17c0,0-4.67,26.7,5.45,34.21l3.06-5.05Z"/>
        <path class="cls-1" d="M157.28,272.11l-8.97-39.49s-6.35,33.27,9.76,46.67l-.78-7.18Z"/>
        <path class="cls-1" d="M155.88,232.35s-17.97-25.77-17.83-28.77c0,0,3.61,28.01,24.88,40.67l-7.05-11.9Z"/>
        <path class="cls-1" d="M157.28,224.31s-17.8-37.1-24.9-39.76c0,0,22.52,9.61,26.11,38.53l-1.2,1.22Z"/>
        <path class="cls-1" d="M197.58,511.86s8.16-1.87,13.48,3.62c0,0-3.44,3.06-11.49-.34l-1.99-3.28Z"/>
        <path class="cls-1" d="M196.69,511.79s-4.81,6.83-1.75,13.83c0,0,4.16-2.04,4.08-10.75l-2.32-3.08Z"/>
        <path class="cls-1" d="M191.27,501.48s2.88-6.25,16.62,1.32c0,0-1.48,4.17-7.32,4.23s-7.55-2.47-9.3-5.55Z"/>
        <path class="cls-1" d="M190.39,501.1s-6.89-.32-6.5,15.35c0,0,4.39.61,7.14-4.55s1.29-7.83-.63-10.81Z"/>
        <path class="cls-1" d="M185.57,488.9s3.13-10.9,17.56-4.26c0,0-2.52,9.98-15.89,7.79l-1.67-3.53Z"/>
        <path class="cls-1" d="M180.23,473.28s6.51-11.21,20.02-2.12c0,0-3.82,10.4-18.67,5.88l-1.36-3.76Z"/>
        <path class="cls-1" d="M177.67,458.24s7.79-10.45,21.17-1.43c0,0-7.42,9.17-21,3.95l-.17-2.52Z"/>
        <path class="cls-1" d="M175.36,443.63s7.87-10.89,20.7-1.94c0,0-9.04,9.76-20.54,4.35l-.16-2.42Z"/>
        <path class="cls-1" d="M175.26,430.52s8.16-13.87,20.11-5.65c0,0-8.89,12.06-19.95,8.16l-.16-2.51Z"/>
        <path class="cls-1" d="M176.32,415.13s8.65-13.81,20.39-4.47c0,0-10.54,12.17-20.27,6.87l-.12-2.41Z"/>
        <path class="cls-1" d="M178.58,401.29s10.47-13.13,20.67-8.85c0,0-10.9,13.93-20.93,12.17l.25-3.32Z"/>
        <path class="cls-1" d="M181.66,388.1s12.04-16.02,19.95-11.48c0,0-8.82,12.39-20.69,14.39l.74-2.92Z"/>
        <path class="cls-1" d="M186.36,372.75s10.58-13.14,19.12-10.62c0,0-8.9,13.49-20.39,14.59l1.26-3.97Z"/>
        <path class="cls-1" d="M190.58,358.36s11.82-12.69,17.44-10.98c0,0-8.22,13.77-17.82,13.65l.38-2.67Z"/>
        <path class="cls-1" d="M194.75,345.08s9.92-14.88,15.91-14.19c0,0-5.73,13.06-15.81,15.62l-.1-1.43Z"/>
        <path class="cls-1" d="M199.08,327.26s8.87-11.5,14.06-11.83c0,0-6.61,15.01-14.22,15.38l.16-3.56Z"/>
        <path class="cls-1" d="M201.53,315.41l7.74-23.2s1.83,20.39-8.65,27.52l.92-4.32Z"/>
        <path class="cls-1" d="M203.62,290.23s.27-18.97-.83-20.44c0,0,7.69,15.24,1.32,28.79l-.49-8.35Z"/>
        <path class="cls-1" d="M185.19,488.67s-10.01-5.32-15.29,9.68c0,0,8.94,5.1,16.65-6.04l-1.36-3.65Z"/>
        <path class="cls-1" d="M179.88,472.65s-12.16-4.59-16.86,11.02c0,0,9.53,5.64,18.19-7.24l-1.33-3.78Z"/>
        <path class="cls-1" d="M177.18,459.18s-9.1-9.31-21.17,1.43c0,0,8.59,8.16,21.35,1.1l-.17-2.53Z"/>
        <path class="cls-1" d="M175.08,443.65s-9.25-9.74-20.78.85c0,0,10.27,8.45,20.94,1.57l-.16-2.42Z"/>
        <path class="cls-1" d="M175.28,430.85s-7-14.47-19.62-7.2c0,0,7.93,12.71,19.26,9.7l.37-2.51Z"/>
        <path class="cls-1" d="M177.07,415s-6.98-14.73-19.79-6.82c0,0,9.03,13.32,19.32,9.17l.47-2.35Z"/>
        <path class="cls-1" d="M179.86,401.29s-3.48-16.43-14.52-17.18c0,0,3.5,17.33,13.25,20.26l1.26-3.08Z"/>
        <path class="cls-1" d="M181.95,388.11s-2.24-19.91-11.42-20.01c0,0,1.33,15.15,10.54,22.91l.88-2.9Z"/>
        <path class="cls-1" d="M187.26,372.09s-3.82-16.43-12.61-17.88c0,0,2.16,16.02,12.04,22.01l.57-4.13Z"/>
        <path class="cls-1" d="M191.61,358.41s-1.25-17.33-6.71-19.49c0,0-2.23,15.89,5.32,21.81l1.39-2.31Z"/>
        <path class="cls-1" d="M195.15,344.85s-1.94-17.78-7.58-19.92c0,0-.93,14.27,6.84,21.14l.74-1.22Z"/>
        <path class="cls-1" d="M199.92,328.62s-1.02-14.49-5.1-17.64c0,0-2.82,16.15,3.29,20.68l1.8-3.05Z"/>
        <path class="cls-1" d="M201.02,314.73l-5.42-23.88s-3.84,20.12,5.89,28.22l-.47-4.34Z"/>
        <path class="cls-1" d="M200.16,290.7s-10.86-15.57-10.78-17.39c0,0,2.17,16.93,15.04,24.58l-4.26-7.19Z"/>
        <path class="cls-1" d="M200.97,285.83s-10.77-22.43-15.06-24.01c0,0,13.62,5.81,15.78,23.3l-.72.7Z"/>
        <path class="cls-3" d="M241.1,581.04c-2.62.46-5.18,1.2-7.65,2.18-54.99,21.96-54.07,165.7-54.07,165.7h-16.19s-5.1-61.69-27.31-149.69c-20.01-79.18,62.06-150.14,78.73-163.6,1.88-1.5,2.92-2.29,2.92-2.29,82.67,30.38,23.57,147.71,23.57,147.71Z"/>
        <path class="cls-3" d="M513.84,599.24c-22.26,88.01-27.28,149.67-27.28,149.67h-16.22s1.02-150.22-57.83-166.99c-1.27-.38-2.57-.69-3.88-.91,0,0-59.13-117.33,23.57-147.69,0,0,.84.62,2.34,1.83,15.32,12.26,99.54,83.98,79.3,164.08Z"/>
        <circle class="cls-3" cx="324.85" cy="299.31" r="73.02"/>
        <path class="cls-14" d="M376.64,299.35c0,28.6-23.19,51.79-51.79,51.79-11.97,0-23.57-4.15-32.82-11.73-3.7-3.05-6.97-6.59-9.7-10.53-1.23-1.76-2.35-3.59-3.34-5.49-3.88-7.41-5.91-15.66-5.9-24.03v-1.23c.55-22.73,15.84-42.46,37.72-48.65,4.07-1.12,8.26-1.76,12.48-1.9h1.55c28.6-.02,51.8,23.16,51.82,51.76v.02Z"/>
        <path class="cls-3" d="M397.99,155.39c-82.85,39.67-149.06,0-149.06,0,16.21-54.48,39.24-106.69,68.54-155.39,0,0,46.45,53.33,80.52,155.39Z"/>
        <path class="cls-3" d="M404.3,603.28c-3.87,15.25-8.19,30.76-12.95,46.54-2.26,7.52-4.64,15.11-7.14,22.75-3.75,11.47-36.41,37.93-124.37,0,0,0-2.85-8.04-7.14-22.75-3.2-11.11-7.19-26.01-11.35-44.13,0,0,32.74,13.98,79.22,13.98,28.71.1,57.16-5.47,83.72-16.38Z"/>
        <circle class="cls-14" cx="685.46" cy="571.64" r="13.83"/>
        <circle class="cls-14" cx="686.23" cy="569.88" r="13.83"/>
      </g>
      <path class="cls-8" d="M689.93,573.34c-.24,32.04,66.02,38.83,66.02,38.83l16.92,2.69,7.58,1.2,3.16-31.28s-3.48-.52-7.82-1.53c-6.41-1.5-14.72-4.08-16.46-7.7-2.91-6.07-69.17-34.25-69.4-2.22Z"/>
      <path class="cls-5" d="M791.37,366.17c1.53.11,2.97.75,4.08,1.81,1.88,1.99,1.98,5.52,4.41,6.74.91.4,1.92.51,2.9.34,6.45-.92,10.19-8.16,16.38-10.19,3.53-1.14,7.41-.4,10.86.93,1.39.43,2.63,1.23,3.6,2.31,2.04,2.68.62,6.63,1.58,9.88,1.34,4.51,6.72,6.3,11.38,6.89,4.66.59,9.91.92,13.02,4.43,2.2,2.5,2.76,6.12,2.31,9.39-.27,1.14-.27,2.33,0,3.48,1.28,3.64,7.58,3.06,9.23.22,1.2-2.09.84-3.82,3.67-4.4,1.92-.4,4.17.41,5.94,1.02,4.94,1.7,10.15,2.51,15.37,2.37,12.97-27.83.92-60.9-26.91-73.86-27.83-12.97-60.9-.92-73.86,26.91-1.75,3.75-3.07,7.69-3.95,11.74Z"/>
      <path class="cls-1" d="M861.85,400.71c-.27-1.14-.27-2.33,0-3.48.44-3.29-.11-6.9-2.31-9.39-3.06-3.52-8.36-3.85-13.02-4.43-4.66-.58-10.04-2.38-11.38-6.88-.96-3.25.49-7.21-1.58-9.89-.96-1.08-2.2-1.88-3.59-2.3-3.46-1.34-7.34-2.04-10.87-.94-6.19,2.04-9.93,9.3-16.38,10.19-.98.18-1.98.06-2.9-.34-2.44-1.22-2.54-4.75-4.41-6.73-2.95-3.12-8.54-1.11-12.15-3.43-2.35-1.52-3.26-4.47-3.91-7.19-1.28-5.28-2.31-10.82-1.08-16.1,2.11-9.03,10.19-15.22,15.29-22.93,4.8-7.19,7.49-16.31,14.71-21.04,7.22-4.73,16.48-3.68,24.62-1.26,3.81,1.13,7.58,2.54,11.53,3.06,6.57.81,13.15-1.02,19.76-1.2,9.33-.3,18.5,2.48,26.09,7.92,1.71,1.12,3.16,2.59,4.26,4.31,1.32,2.32,1.49,5.1,1.89,7.73.77,5.02,2.5,9.84,5.1,14.2,2.04,3.42,4.6,6.51,6.44,10.04s2.93,7.7,1.74,11.49c-.62,2.04-1.86,3.8-2.31,5.85-1.08,4.74,2.04,9.27,4.17,13.64,2.06,3.99,3.04,8.45,2.83,12.94-.24,4.52-2.35,8.73-5.81,11.63-3.44,2.69-7.95,3.59-12.3,3.73-5.33.18-10.64-.62-15.68-2.35-1.78-.61-4.08-1.42-5.94-1.02-2.83.58-2.47,2.31-3.67,4.4-1.55,2.85-7.84,3.39-9.12-.24Z"/>
      <path class="cls-5" d="M831.91,714.11l31.31-24.47,49.28-48.55s-6.63-.33-16.31-.73c-1.76,1.79-3.33,4.08-3.44,6.63-.24,5.93-13.32.42-20.11,3.81s-40.04,45.95-45.87,45.67-10.43-2.96-12.87,1.17c-.05.1-.11.19-.17.28-.97,1.11-2.27,1.87-3.7,2.19l21.89,14Z"/>
      <path class="cls-1" d="M768.81,712.41l15.73,50.22,2.47,7.89,7.49-2.04,16.51-4.54,73.56-20.21s13.82-.18,26.51-7.06c14.02-7.63,29.83-11.46,45.71-9.97,9.73.91,20.54-3.28,29.56-19.86,0,0,20.39-60.15-31.07-77.48s-53.91,9.17-53.91,9.17c0,0-.27.14-.69.43-2.04,1.27-7.59,5.28-7.8,10.19-.24,5.93-13.32.41-20.11,3.8s-40.04,45.96-45.87,45.68-10.43-2.96-12.87,1.17c0,.09-.11.17-.17.27-1.79,2.48-7.2,3.06-10.78,3.15-1.95.06-3.36,0-3.36,0l-.46.14-3.81,1.06-26.64,7.97Z"/>
      <path class="cls-5" d="M772.87,614.86l7.58,1.2,3.16-31.28s-3.48-.52-7.82-1.53c1.15,4.33-1.46,21.22-2.93,31.6Z"/>
      <path class="cls-5" d="M971.34,468.57s22.57-6.55,16.98,57.53c-5.59,64.08-47.32,104.56-47.32,104.56,0,0-48.06,21.11-69.66,17.72s-37.37-4.08-37.37-4.08c-6.8-3.44-14.24-5.42-21.85-5.82-12.14-.49-37.62-8.01-38.11-10.44s6.31-38.11,3.39-40.78c0,0,33.98,1.4,37.38,3.85s8.25.69,11.89,0c3.64-.69,14.81-10.41,36.89-1.91,0,0,7.52.72,10.44-1.21s7.58-.49,7.58-.49c0,0,4.58-1.7,5.28-2.72s6.54,0,6.54,0c1.28.63,2.84.09,3.46-1.19.08-.16.14-.34.19-.51.76-1.99,1.92-3.8,3.39-5.33,0,0,6.55-36.89,18.93-50.73,0,0,3.64-3.16,2.67-7.04s20.17-59.19,49.27-51.41Z"/>
      <path class="cls-13" d="M970.79,463.64s22.57-6.55,16.99,57.53c-5.58,64.08-47.38,104.6-47.38,104.6,0,0-48.06,21.11-69.66,17.72-21.6-3.39-37.37-4.13-37.37-4.13-6.8-3.44-14.24-5.42-21.85-5.82-12.13-.49-37.62-8.01-38.11-10.44s6.31-38.11,3.4-40.78c0,0,33.98,1.4,37.37,3.85s8.26.69,11.9,0,14.8-10.4,36.89-1.91c0,0,7.52.72,10.43-1.21s7.59-.49,7.59-.49c0,0,4.55-1.7,5.27-2.67s6.55,0,6.55,0c1.28.63,2.82.1,3.45-1.18.08-.16.14-.34.19-.51.76-1.99,1.92-3.81,3.39-5.34,0,0,6.55-36.89,18.93-50.73,0,0,3.64-3.16,2.67-7.03s20.14-59.23,49.32-51.46Z"/>
      <path class="cls-5" d="M795.44,704.44l32.05,38.74c.12-.11.2-.19.2-.22.24-.73,3.39-8.98,2.67-9.47s-6.31-12.62-17.47-17.72c-6.82-3.06-11.29-8.65-13.72-12.49l-3.73,1.16Z"/>
      <path class="cls-5" d="M795.88,771.56l3.51,2.04s8.16-6.52,16.22-13.09,15.93-13,16.07-13.36c.23-.72,3.38-8.98,2.66-9.46-.38-.25-2.04-3.62-5.1-7.51-21.73-6.12-7.9,9-6.06,9.69,0,0-26.51-6.12-27.91,22.74-.19,3,.01,6.01.61,8.95Z"/>
      <path class="cls-13" d="M822.68,783.77l4.62,2.67,46.89,1.21s10.05,6.12,16.58,7.97c.77.24,1.56.41,2.35.52,4.34.35,8.7.43,13.05.24,3.59-.09,6.37-.24,6.37-.24,0,0-2.22-59.13-3.89-65.24-.8-2.98-4.72-2.32-8.59-.84-2.91,1.18-5.72,2.6-8.39,4.25,0,0-19.9,1.93-23.06,3.64s-12.13-1.02-17.72,0c-5.59,1.02-15.53-6.58-15.53-6.58-27.19-8.97-11.9,7.77-9.96,8.5,0,0-26.44-6.12-27.9,22.74-1.46,28.86,25.18,21.14,25.18,21.14Z"/>
      <path class="cls-13" d="M890.4,760.95c.51,12.23,10.04,27.41,15.72,35.44,3.59-.09,6.37-.24,6.37-.24,0,0-2.22-59.13-3.89-65.24-.8-2.98-4.72-2.32-8.59-.84-4.66,8.77-10.01,21.03-9.6,30.89Z"/>
      <path class="cls-5" d="M890.4,760.95c.51,12.23,10.04,27.41,15.72,35.44,3.59-.09,6.37-.24,6.37-.24,0,0-2.22-59.13-3.89-65.24-.8-2.98-4.72-2.32-8.59-.84-4.66,8.77-10.01,21.03-9.6,30.89Z"/>
      <path class="cls-7" d="M882.39,762.58c3.22,11.81,3.19,25.05,8.33,33.05.77.24,1.56.41,2.35.52,4.34.35,8.7.43,13.05.24,3.59-.09,6.37-.24,6.37-.24,0,0-2.22-59.13-3.89-65.24-.8-2.98-4.72-2.32-8.59-.84-2.91,1.18-5.72,2.6-8.39,4.25,0,0-13.34,13.15-9.23,28.26Z"/>
      <path class="cls-5" d="M720.79,642.83s23.26,7.55,42.98,34.39l-42.98-34.39Z"/>
      <g class="cls-17">
        <path class="cls-4" d="M909.85,351.6c-.04.17-.09.34-.14.51-.22.7-.49,1.38-.81,2.04.24-.88.56-1.73.95-2.55Z"/>
        <path class="cls-4" d="M778.23,339.83c.4-1.7,1.01-3.35,1.8-4.9-.12.42-.25.84-.36,1.26-1.23,5.28-.2,10.82,1.08,16.1.66,2.72,1.56,5.67,3.91,7.19,3.62,2.31,9.17.3,12.15,3.42,1.88,1.99,1.98,5.52,4.42,6.74.91.4,1.92.51,2.9.34,6.44-.92,10.19-8.16,16.38-10.19,3.53-1.14,7.4-.4,10.86.94,1.38.43,2.62,1.22,3.59,2.3,2.04,2.68.62,6.64,1.58,9.88,1.34,4.51,6.72,6.3,11.38,6.88s9.91.92,13.02,4.44c2.2,2.49,2.76,6.12,2.31,9.39-.27,1.14-.27,2.33,0,3.48,1.28,3.64,7.58,3.06,9.17.22,1.2-2.09.85-3.82,3.68-4.4,1.91-.4,4.16.41,5.93,1.02,5.04,1.74,10.35,2.53,15.68,2.35,4.35-.15,8.88-1.02,12.3-3.73,1.57-1.25,2.85-2.81,3.77-4.59-.8,3.23-2.62,6.12-5.2,8.24-3.43,2.69-7.94,3.59-12.3,3.73-5.32.18-10.63-.62-15.67-2.35-1.78-.61-4.08-1.42-5.94-1.02-2.83.58-2.48,2.31-3.67,4.4-1.65,2.87-7.94,3.42-9.24-.22-.27-1.14-.27-2.33,0-3.48.45-3.29-.1-6.9-2.3-9.39-3.12-3.52-8.37-3.85-13.03-4.43s-10.04-2.38-11.37-6.88c-.97-3.25.49-7.21-1.58-9.89-.97-1.08-2.21-1.87-3.6-2.3-3.46-1.34-7.33-2.04-10.86-.94-6.2,2.04-9.94,9.3-16.38,10.19-.98.18-1.98.06-2.9-.34-2.45-1.22-2.55-4.75-4.42-6.73-2.95-3.12-8.53-1.11-12.14-3.43-2.37-1.52-3.26-4.47-3.92-7.19-1.26-5.29-2.29-10.83-1.05-16.11Z"/>
      </g>
      <path class="cls-5" d="M913.62,534.08c-4.44,6-9.52,11.56-13.46,17.91s-6.72,13.76-5.89,21.18c4.08-4.18,5.93-9.95,8.5-15.19,4.34-8.87,10.85-16.39,16.31-24.55,1.02-1.56,7.76-10.55,4.36-10.98-2.79-.36-8.31,9.57-9.83,11.62Z"/>
    </g>
  </g>
</svg>